<svg width="20" height="20" viewBox="0 0 20 20" fill="none" xmlns="http://www.w3.org/2000/svg">
<path d="M18.3334 10.0003C18.3334 14.6027 14.6024 18.3337 10.0001 18.3337C5.39771 18.3337 1.66675 14.6027 1.66675 10.0003C1.66675 5.39795 5.39771 1.66699 10.0001 1.66699C14.6024 1.66699 18.3334 5.39795 18.3334 10.0003Z" stroke="#9B9B9B"/>
<path d="M15.7652 8.67676C14.9577 9.03026 13.7377 9.34801 12.633 8.93034C11.0532 8.33301 10.2412 8.33301 10.0001 8.33301C9.759 8.33301 8.94691 8.33301 7.36716 8.93034C6.26251 9.34801 5.04251 9.03026 4.23496 8.67676M15.8334 11.0453C14.0456 11.3856 11.34 12.398 11.2699 15.833M8.73025 15.833C8.66016 12.398 5.95461 11.3856 4.16675 11.0453" stroke="#9B9B9B" stroke-linecap="round" stroke-linejoin="round"/>
<path d="M10.0068 10.833H9.99927" stroke="#9B9B9B" stroke-linecap="round" stroke-linejoin="round"/>
</svg>
